<svg width="128" height="128" viewBox="0 0 128 128" fill="none" xmlns="http://www.w3.org/2000/svg">
<path d="M1.47559 39.6349C1.47559 1.2068 37.6284 -1.74905 51.6468 3.42392L53.8603 4.16284L53.1225 4.90184C45.7443 10.0748 39.8418 22.6378 39.8418 39.6349C39.104 54.4148 50.1712 71.4118 54.5981 72.8898C16.9697 85.4528 1.47559 55.8928 1.47559 39.6349Z" fill="#FFA408"/>
<path d="M89.9957 2.5183C128.27 5.18552 128.704 41.5143 122.579 55.1624L121.689 57.3228L121.005 56.5343C116.364 48.8031 104.262 42.0333 87.3327 40.8536C72.6634 39.0905 54.9664 48.9691 53.1871 53.2898C43.2863 14.8197 73.803 1.38987 89.9957 2.5183Z" fill="#44F2E4"/>
<path d="M123.37 89.9232C120.871 128.27 84.6026 128.861 70.9503 122.784L68.7896 121.903L69.5739 121.213C77.2728 116.533 83.9797 104.381 85.0849 87.4204C86.7822 72.72 76.8438 55.0371 72.5224 53.2734C110.888 43.1918 124.427 73.6998 123.37 89.9232Z" fill="#057DCD"/>
<path d="M38.0803 123.759C-0.269943 122.643 -2.16971 86.3617 3.39996 72.4769L4.20167 70.2823L4.91774 71.0424C9.86595 78.5796 22.232 84.854 39.1946 85.3477C53.9232 86.5157 71.2071 75.9291 72.8107 71.5399C84.2553 109.578 54.3052 124.232 38.0803 123.759Z" fill="#838BE6"/>
</svg>
