<svg xmlns:dc="http://purl.org/dc/elements/1.1/" xmlns:cc="http://creativecommons.org/ns#" xmlns:rdf="http://www.w3.org/1999/02/22-rdf-syntax-ns#" xmlns:svg="http://www.w3.org/2000/svg" xmlns="http://www.w3.org/2000/svg" viewBox="0 0 400 400" fill="none"><metadata><rdf:RDF><cc:Work><dc:format>image/svg+xml</dc:format><dc:type rdf:resource="http://purl.org/dc/dcmitype/StillImage"/><dc:title>Adventurer Neutral</dc:title><dc:creator><cc:Agent><dc:title>Lisa Wischofsky</dc:title></cc:Agent></dc:creator><dc:source>https://www.instagram.com/lischis_adventures/</dc:source><cc:license rdf:resource="https://creativecommons.org/licenses/by/4.0/"/></cc:Work><cc:License rdf:about="https://creativecommons.org/licenses/by/4.0/"><cc:permits rdf:resource="https://creativecommons.org/ns#Reproduction"/><cc:permits rdf:resource="https://creativecommons.org/ns#Distribution"/><cc:permits rdf:resource="https://creativecommons.org/ns#DerivativeWorks"/><cc:requires rdf:resource="https://creativecommons.org/ns#Notice"/><cc:requires rdf:resource="https://creativecommons.org/ns#Attribution"/></cc:License></rdf:RDF></metadata><mask id="avatarsRadiusMask"><rect width="400" height="400" rx="0" ry="0" x="0" y="0" fill="#fff"/></mask><g mask="url(#avatarsRadiusMask)"><rect fill="rgba(118, 57, 0, 1)" width="400" height="400" x="0" y="0"/><g transform="translate(-279 -322)"><path d="M555 424.09c15.07-.45 30.21 4.46 42.06 13.81 18.47 14.28 28.15 38.55 24.23 61.62-.99 7.61-3.96 14.36-6.83 21.38-1.43.59-2.9 1.25-4.4 1.62-3.14-.02-6.34-1.41-9.37-2.2-15.51-4.54-31.55-6.76-47.69-6.93-13.3.45-27.29 2.4-39.34 8.31-2.83 1.28-5.61 2.99-8.59 3.86-3.52-.25-4.36-3.15-5.94-5.74-7.02-13.13-9.05-28.5-6.31-43.08 2.57-13.26 9.31-25.52 19.15-34.79 11.6-11.03 27.01-17.44 43.03-17.86Z" fill="#000"/><path d="M557.001 429.85c13.47-.19 26.63 4.66 37.13 13.01 9.59 7.63 16.7 18.34 20 30.15 4.23 14.46 2.5 30.12-4.26 43.54-6.14-.92-11.86-3.14-17.94-4.39-16.73-3.67-34.37-5.5-51.43-3.48-12.36 1.34-23.99 5.14-34.84 11.18-6.86-11.98-10.07-26.23-7.61-39.92 2-12.66 8.2-24.57 17.42-33.47 10.95-10.62 26.24-16.88 41.53-16.62Z" fill="#fff"/><path d="M381.25 447.09c12.75-1.3 25.87 1.93 36.48 9.14 12.3 8.24 20.94 21.6 23.4 36.21 1.25 8.35.98 17.27-1.59 25.36-3.82 12.78-12.47 23.95-23.86 30.89-10.28 6.31-22.73 9.17-34.72 7.73-15.89-1.56-30.69-10.55-39.57-23.79-5.78-8.44-8.88-18.4-9.5-28.58-.36-12.78 3.55-25.59 11.4-35.73 9.08-11.92 23.05-19.71 37.96-21.23Z" fill="#000"/><path d="M376.499 453.66c11.24-2.5 23.12-.85 33.29 4.51 17.34 8.91 28.1 28.42 26.3 47.83-1.13 11.3-5.9 22.08-13.91 30.17-8.21 8.51-19.42 13.72-31.18 14.77-19.4 1.77-38.75-8.99-47.69-26.26-8.31-15.63-7.35-35.21 2.46-49.94 7-10.71 18.22-18.41 30.73-21.08Z" fill="#fff"/><path d="M519.431 474.74c8.56-2.21 17.77 3.55 19.3 12.29 1.86 8.33-3.88 16.92-12.2 18.57-9.21 2.17-18.82-5.06-18.99-14.59-.68-7.52 4.66-14.48 11.89-16.27ZM403.43 485.61c9.52-3.24 20.05 4.41 20.34 14.34.81 8.84-6.85 17.06-15.74 16.75-8.62.39-16.04-7.14-15.96-15.68-.25-6.97 4.7-13.5 11.36-15.41ZM598.819 532.68c1.05.34 2.11.69 3.16 1.06-.43 1.65-.27 3.31-1.72 4.43-6.89 5.73-16.13 10.13-25.25 9.91-3.84-.08-8.61-1-11.46-3.78-.26-1.17-.33-2.4-.44-3.59.93-.31 1.87-.63 2.81-.94 4.52 2.16 9.07 3.47 14.1 2.21 7.46-1.28 12.59-5.51 18.8-9.3ZM347.061 547.76c2.26-.49 3.85 1.46 5.53 2.62 9.4 7.75 21.34 11.38 33.42 11.45 5.83.1 10.84-2.25 16.7-1.34-.51 2.38-.06 4.38-2.93 5.06-18.1 4.87-38.96.17-52.89-12.49-1.77-1.38-2.24-4.33.17-5.3Z" fill="#000"/></g><g transform="translate(-279 -322)"><g fill="#000"><path d="M501.99 384.96c9.91.12 19.87 3.23 28.83 7.31 3.36 1.88 7.05 4.01 7.31 8.29-5.14-.86-10.14-2.06-15.38-2.28-11.6-.68-23.13 1.36-33.25 7.23-2.54 1.41-4.95 3.26-7.64 4.35-1.8.27-3.92-1.99-3.94-3.73-.18-5.81 1.95-11.92 6.53-15.7 5.03-4.23 11.15-5.3 17.54-5.47ZM414.03 402.61c5.81.15 10.93 5.3 12.51 10.64.8 2.63-.46 5.72-3.53 5.61-8.82.21-18.21.03-26.81 2.26-7.52 2.01-14.74 6.71-21.36 10.74-1.22.81-2.57.96-3.98 1.22.33-1.93.64-3.66 1.94-5.21 3.28-4.33 6.78-8.58 10.74-12.3 5.88-5.17 13.01-8.96 20.32-11.66 3.23-1.11 6.76-1.58 10.17-1.3Z"/></g></g><g transform="translate(-279 -322)"><path d="M524.2 555.79c.49 6.88-.8 13.42-1.56 20.21-2.78 24.19-9.38 47.95-19.15 70.23-3.65 7.33-6.74 15.74-13.95 20.34-4.25 3.06-10.3 1.77-14.6-.52-9.49-4.69-15.15-12.28-21.77-20.2-10.97-13.41-18.85-28.33-26.05-44.01-3.56-8.19-6.83-16.5-10.25-24.74-.87-2.13-1.17-4.09 1.07-5.43 4.72-.01 9.31 1.49 14.06 1.51 9.29.24 18.74.4 27.98-.82 19.98-2.29 39.64-8.3 57.99-16.44 2.13-1.07 4.03-.6 6.23-.13Z" fill="#000"/><path d="M518.93 561.99c-1.93 15.16-3.98 30.2-8.01 44.98-4.69 16.77-10.27 33.84-19.05 48.96-2.17 3.44-5.29 7.34-9.89 6.51-7.43-1.55-14.07-7.99-18.68-13.73-9.88-10.97-17.89-23.26-24.61-36.38-6.13-11.12-10.64-22.89-15.69-34.52 4.8.44 9.6.8 14.4 1.2 1.13 5.94 4.59 11.51 8.45 16.07 5.08 5.94 12.23 9.8 20.13 9.97 6.25-.49 12.08-3.13 16.68-7.36 8.02-7.35 11.96-17.07 14.48-27.43 7.39-2.48 14.64-5.15 21.79-8.27Z" fill="#8F2E45"/><path d="M490.65 572.12c-2.55 8.79-7.09 18.39-14.95 23.59-5.47 3.77-12.71 4.39-18.57 1.12-7.01-3.86-10.91-10.5-13.93-17.65 16.1-.33 32.01-2.32 47.45-7.06Z" fill="#fff"/></g><g transform="translate(-279 -322)"/></g></svg>