<svg width="18" height="18" viewBox="0 0 18 18" fill="none" xmlns="http://www.w3.org/2000/svg">
<g clip-path="url(#clip0_70_99)">
<path d="M12.0233 4.58158C12.3653 4.79673 12.8159 4.78889 13.0918 4.49355L14.397 3.10101C14.6729 2.80569 14.6192 2.38733 14.2777 2.1713L14.2603 2.15548C12.804 1.03442 10.9801 0.367432 9.00012 0.367432C5.69386 0.367432 2.82314 2.22692 1.37305 4.95634L4.00752 7.06624C4.78391 5.06403 6.72372 3.64192 9.00012 3.64192C10.1123 3.64192 11.1427 3.98371 11.9979 4.56491L12.0233 4.58158Z" fill="#D50707"/>
<path d="M3.64168 9.00008C3.64168 8.31724 3.77428 7.6667 4.00723 7.06617L1.37273 4.9563C0.731793 6.16279 0.367188 7.53863 0.367188 9.00011C0.367188 10.4684 0.734816 11.8504 1.3813 13.0609L4.00016 10.9148C3.772 10.3193 3.64168 9.67564 3.64168 9.00008Z" fill="#FFD41D"/>
<path d="M11.9784 13.4501C11.1262 14.0218 10.103 14.3584 8.99961 14.3584C6.71575 14.3584 4.77101 12.927 3.99975 10.9146L1.38086 13.0606C2.83394 15.7809 5.69998 17.6326 8.99932 17.6326C11.1421 17.6326 13.1009 16.8503 14.6101 15.5578L11.9784 13.4501Z" fill="#1EB615"/>
<path d="M17.6007 8.26467C17.5475 7.8641 17.1733 7.53638 16.7692 7.53638H10.0814C9.67729 7.53638 9.34668 7.86699 9.34668 8.27107V9.85282C9.34668 10.2569 9.67729 10.5875 10.0814 10.5875H13.3836C13.7641 10.5875 14.0221 10.8477 13.8958 11.1776C13.4824 12.104 12.8127 12.8903 11.9783 13.4501L14.6101 15.5578C16.459 13.9744 17.632 11.6249 17.632 8.99997C17.632 8.5005 17.6007 8.26467 17.6007 8.26467Z" fill="#0084FF"/>
<path d="M11.4063 8.53101H11.2419C11.039 8.53101 10.8745 8.69547 10.8745 8.89835C10.8745 9.10124 11.039 9.2657 11.2419 9.2657H11.4063C11.6092 9.2657 11.7737 9.10124 11.7737 8.89835C11.7737 8.6955 11.6092 8.53101 11.4063 8.53101Z" fill="black"/>
<path d="M15.7946 8.53101H12.5939C12.391 8.53101 12.2266 8.69547 12.2266 8.89835C12.2266 9.10124 12.391 9.2657 12.5939 9.2657H15.7946C15.9975 9.2657 16.162 9.10124 16.162 8.89835C16.162 8.6955 15.9975 8.53101 15.7946 8.53101Z" fill="black"/>
<path d="M17.9654 8.21633C17.8874 7.62908 17.3622 7.16906 16.7698 7.16906H10.0819C9.47426 7.16906 8.97989 7.66343 8.97989 8.27111V9.85286C8.97989 10.4605 9.47426 10.9549 10.0819 10.9549H13.3842C13.4986 10.9549 13.5549 10.9958 13.5612 11.0095C13.5617 11.0118 13.5616 11.0219 13.5558 11.0393C13.1727 11.892 12.5568 12.62 11.7742 13.1451C11.7742 13.1451 11.7741 13.1451 11.7741 13.1452C10.9492 13.6985 9.98996 13.991 9.0001 13.991C6.95021 13.991 5.07888 12.7021 4.34348 10.7835C4.34345 10.7835 4.34345 10.7834 4.34341 10.7833C4.12165 10.2045 4.00922 9.60448 4.00922 9C4.00922 8.38775 4.12383 7.7818 4.34988 7.19898C4.34999 7.1987 4.35006 7.19838 4.35016 7.1981C5.10173 5.26085 6.92676 4.00915 8.99993 4.00915C9.99868 4.00915 10.9639 4.30632 11.7913 4.86861C11.7927 4.86956 11.7941 4.87055 11.7956 4.87153L11.8209 4.88823C11.8231 4.88964 11.8253 4.89104 11.8275 4.89241C12.0412 5.02689 12.2835 5.09797 12.5281 5.09797C12.5281 5.09797 12.5281 5.09797 12.5281 5.09797C12.8515 5.09797 13.1469 4.97232 13.3595 4.74472L14.6653 3.35169C14.8717 3.13073 14.9692 2.842 14.933 2.55959C14.8981 2.28821 14.7422 2.04244 14.5034 1.88023C14.4972 1.87471 14.4908 1.86943 14.4842 1.86437C12.8999 0.644695 11.0034 0 8.99993 0C5.66297 0 2.61619 1.83305 1.04843 4.78389C1.04822 4.78427 1.04808 4.7847 1.04783 4.78508C0.362355 6.07591 0 7.53339 0 9.00007C0 10.4745 0.36559 11.9383 1.05718 13.2334C1.05722 13.2335 1.05725 13.2336 1.05732 13.2337C2.62775 16.1737 5.67112 18 8.99986 18C11.1427 18 13.2197 17.2322 14.8483 15.8379C14.8488 15.8375 14.8492 15.8372 14.8496 15.8369C16.8517 14.1223 17.9999 11.6303 17.9999 9C17.9999 8.48218 17.9668 8.22695 17.9654 8.21633ZM8.99993 0.734695C10.8348 0.734695 12.5716 1.32328 14.024 2.43724C14.024 2.43724 14.064 2.4686 14.0811 2.48168C14.1566 2.53927 14.1959 2.5875 14.2044 2.65317C14.2128 2.71881 14.1858 2.7888 14.1289 2.84977L12.8231 4.2428C12.7301 4.34243 12.6114 4.36331 12.5282 4.36331C12.4248 4.36331 12.3161 4.33107 12.2218 4.27247L12.2021 4.2595C11.253 3.61508 10.1457 3.27449 9 3.27449C7.82283 3.27449 6.69231 3.62981 5.73071 4.30211C4.92838 4.86306 4.28984 5.60953 3.86332 6.48014L1.84444 4.86327C3.32237 2.30878 6.03657 0.734695 8.99993 0.734695ZM1.49959 5.52836L3.57261 7.18857C3.37468 7.77762 3.27452 8.38568 3.27452 9C3.27452 9.60718 3.37293 10.2096 3.56734 10.7944L1.505 12.4844C1.00034 11.3986 0.73473 10.2034 0.73473 9.00007C0.734695 7.80202 0.998473 6.61103 1.49959 5.52836ZM8.99986 17.2653C6.04322 17.2653 3.33155 15.6961 1.85171 13.1501L3.8571 11.5067C4.28186 12.3796 4.91938 13.1285 5.72185 13.6918C6.68538 14.3682 7.81896 14.7257 9.0001 14.7257C10.0458 14.7257 11.0616 14.4415 11.9545 13.9012L14.0252 15.5597C12.5869 16.6625 10.8191 17.2653 8.99986 17.2653ZM14.5979 15.077L12.5814 13.462C13.2936 12.8907 13.8597 12.1611 14.2318 11.3273C14.2346 11.3213 14.2371 11.3151 14.2394 11.3089C14.3347 11.0599 14.308 10.7987 14.166 10.5923C14.0057 10.3593 13.7134 10.2202 13.3842 10.2202H10.0819C9.87933 10.2202 9.71455 10.0554 9.71455 9.85282V8.27107C9.71455 8.0685 9.87933 7.90372 10.0819 7.90372H16.7697C16.9897 7.90372 17.2081 8.09504 17.237 8.31217C17.2372 8.31438 17.2652 8.53836 17.2652 8.99996C17.2652 11.3144 16.2965 13.5118 14.5979 15.077Z" fill="black"/>
</g>
<defs>
<clipPath id="clip0_70_99">
<rect width="18" height="18" fill="white"/>
</clipPath>
</defs>
</svg>
